<svg width="941" height="812" viewBox="0 0 941 812" fill="none" xmlns="http://www.w3.org/2000/svg">
<g clip-path="url(#clip0_20_702)">
<rect width="941" height="812" rx="40" fill="#47D0BD"/>
<ellipse cx="645.5" cy="812" rx="229.5" ry="199" fill="#DAEC8B"/>
<circle cx="48" cy="-83" r="350" fill="#BF467A"/>
<path d="M49.9434 191.744V197H33.4795V191.744H49.9434ZM35.6582 164.297V197H28.9199V164.297H35.6582ZM52.3691 185.096V184.624C52.3691 182.842 52.6237 181.202 53.1328 179.705C53.6419 178.193 54.3831 176.882 55.3564 175.774C56.3298 174.666 57.5277 173.805 58.9502 173.191C60.3727 172.562 62.0049 172.248 63.8467 172.248C65.6885 172.248 67.3281 172.562 68.7656 173.191C70.2031 173.805 71.4085 174.666 72.3818 175.774C73.3701 176.882 74.1188 178.193 74.6279 179.705C75.137 181.202 75.3916 182.842 75.3916 184.624V185.096C75.3916 186.863 75.137 188.502 74.6279 190.015C74.1188 191.512 73.3701 192.822 72.3818 193.945C71.4085 195.053 70.2106 195.914 68.7881 196.528C67.3656 197.142 65.7334 197.449 63.8916 197.449C62.0498 197.449 60.4102 197.142 58.9727 196.528C57.5501 195.914 56.3447 195.053 55.3564 193.945C54.3831 192.822 53.6419 191.512 53.1328 190.015C52.6237 188.502 52.3691 186.863 52.3691 185.096ZM58.8379 184.624V185.096C58.8379 186.114 58.9277 187.065 59.1074 187.948C59.2871 188.832 59.5716 189.61 59.9609 190.284C60.3652 190.943 60.8893 191.46 61.5332 191.834C62.1771 192.208 62.9632 192.396 63.8916 192.396C64.79 192.396 65.5612 192.208 66.2051 191.834C66.849 191.46 67.3656 190.943 67.7549 190.284C68.1442 189.61 68.4287 188.832 68.6084 187.948C68.8031 187.065 68.9004 186.114 68.9004 185.096V184.624C68.9004 183.636 68.8031 182.707 68.6084 181.839C68.4287 180.955 68.1367 180.177 67.7324 179.503C67.3431 178.814 66.8265 178.275 66.1826 177.886C65.5387 177.496 64.7601 177.302 63.8467 177.302C62.9333 177.302 62.1546 177.496 61.5107 177.886C60.8818 178.275 60.3652 178.814 59.9609 179.503C59.5716 180.177 59.2871 180.955 59.1074 181.839C58.9277 182.707 58.8379 183.636 58.8379 184.624ZM94.7529 172.697H100.615V196.191C100.615 198.408 100.121 200.287 99.1328 201.829C98.1595 203.386 96.7969 204.562 95.0449 205.355C93.293 206.164 91.2565 206.568 88.9355 206.568C87.9173 206.568 86.8392 206.434 85.7012 206.164C84.5781 205.895 83.5 205.475 82.4668 204.906C81.4486 204.337 80.5951 203.618 79.9062 202.75L82.7588 198.932C83.5075 199.8 84.376 200.474 85.3643 200.953C86.3525 201.447 87.4456 201.694 88.6436 201.694C89.8115 201.694 90.7998 201.477 91.6084 201.043C92.417 200.624 93.0384 200.002 93.4727 199.179C93.9069 198.37 94.124 197.389 94.124 196.236V178.312L94.7529 172.697ZM78.4014 185.141V184.669C78.4014 182.812 78.626 181.128 79.0752 179.615C79.5394 178.088 80.1908 176.778 81.0293 175.685C81.8828 174.591 82.916 173.745 84.1289 173.146C85.3418 172.548 86.7119 172.248 88.2393 172.248C89.8564 172.248 91.2116 172.548 92.3047 173.146C93.3978 173.745 94.2962 174.599 95 175.707C95.7038 176.8 96.2503 178.095 96.6396 179.593C97.0439 181.075 97.3584 182.7 97.583 184.467V185.5C97.3584 187.192 97.0215 188.764 96.5723 190.217C96.123 191.669 95.5316 192.942 94.7979 194.035C94.0641 195.113 93.1507 195.952 92.0576 196.551C90.9795 197.15 89.6917 197.449 88.1943 197.449C86.6969 197.449 85.3418 197.142 84.1289 196.528C82.931 195.914 81.9053 195.053 81.0518 193.945C80.1982 192.837 79.5394 191.535 79.0752 190.037C78.626 188.54 78.4014 186.908 78.4014 185.141ZM84.8701 184.669V185.141C84.8701 186.144 84.9674 187.08 85.1621 187.948C85.3568 188.817 85.6562 189.588 86.0605 190.262C86.4798 190.921 86.9964 191.437 87.6104 191.812C88.2393 192.171 88.9805 192.351 89.834 192.351C91.0169 192.351 91.9827 192.104 92.7314 191.609C93.4801 191.1 94.0417 190.404 94.416 189.521C94.7904 188.637 95.0075 187.619 95.0674 186.466V183.523C95.0374 182.58 94.9102 181.734 94.6855 180.985C94.4609 180.222 94.1465 179.57 93.7422 179.031C93.3379 178.492 92.8138 178.073 92.1699 177.773C91.526 177.474 90.7624 177.324 89.8789 177.324C89.0254 177.324 88.2842 177.519 87.6553 177.908C87.0413 178.283 86.5247 178.799 86.1055 179.458C85.7012 180.117 85.3942 180.896 85.1846 181.794C84.9749 182.677 84.8701 183.636 84.8701 184.669ZM123.93 172.697V197H117.438V172.697H123.93ZM117.034 166.363C117.034 165.42 117.364 164.641 118.022 164.027C118.681 163.413 119.565 163.106 120.673 163.106C121.766 163.106 122.642 163.413 123.301 164.027C123.975 164.641 124.312 165.42 124.312 166.363C124.312 167.307 123.975 168.085 123.301 168.699C122.642 169.313 121.766 169.62 120.673 169.62C119.565 169.62 118.681 169.313 118.022 168.699C117.364 168.085 117.034 167.307 117.034 166.363ZM135.609 177.886V197H129.141V172.697H135.205L135.609 177.886ZM134.666 183.995H132.914C132.914 182.198 133.146 180.581 133.61 179.144C134.075 177.691 134.726 176.456 135.564 175.438C136.403 174.404 137.399 173.618 138.552 173.079C139.72 172.525 141.022 172.248 142.46 172.248C143.598 172.248 144.639 172.413 145.582 172.742C146.525 173.072 147.334 173.596 148.008 174.314C148.697 175.033 149.221 175.984 149.58 177.167C149.954 178.35 150.142 179.795 150.142 181.502V197H143.628V181.479C143.628 180.401 143.478 179.563 143.179 178.964C142.879 178.365 142.438 177.946 141.854 177.706C141.285 177.451 140.581 177.324 139.742 177.324C138.874 177.324 138.118 177.496 137.474 177.841C136.845 178.185 136.321 178.664 135.901 179.278C135.497 179.877 135.19 180.581 134.98 181.39C134.771 182.198 134.666 183.067 134.666 183.995Z" fill="white"/>
<path d="M92.8289 50.007L115.14 40.7049C115.538 40.5384 115.524 40.2745 115.107 40.1153C114.693 39.9561 114.031 39.963 113.629 40.1283L90.6254 49.7187C90.2395 49.8799 90.2395 50.134 90.6254 50.2953L113.629 59.8857C113.835 59.9712 114.109 60.0144 114.384 60.0144C114.644 60.0144 114.905 59.9761 115.107 59.8987C115.524 59.7395 115.538 59.4756 115.14 59.3091L92.8289 50.007Z" fill="white"/>
</g>
<defs>
<clipPath id="clip0_20_702">
<rect width="941" height="812" rx="40" fill="white"/>
</clipPath>
</defs>
</svg>
