<svg width="941" height="812" viewBox="0 0 941 812" fill="none" xmlns="http://www.w3.org/2000/svg">
<g clip-path="url(#clip0_20_623)">
<rect width="941" height="812" rx="40" fill="#47D0BD"/>
<ellipse cx="645.5" cy="812" rx="229.5" ry="199" fill="#DAEC8B"/>
<circle cx="48" cy="-83" r="350" fill="#BF467A"/>
<path d="M48.877 140.151H55.5928C55.458 142.353 54.8516 144.307 53.7734 146.014C52.7103 147.721 51.2204 149.053 49.3037 150.012C47.402 150.97 45.111 151.449 42.4307 151.449C40.3343 151.449 38.4551 151.09 36.793 150.371C35.1309 149.637 33.7083 148.589 32.5254 147.227C31.3574 145.864 30.4665 144.217 29.8525 142.285C29.2386 140.354 28.9316 138.19 28.9316 135.794V133.525C28.9316 131.13 29.2461 128.966 29.875 127.034C30.5189 125.088 31.4323 123.433 32.6152 122.07C33.8132 120.708 35.2432 119.66 36.9053 118.926C38.5674 118.192 40.4242 117.825 42.4756 117.825C45.2008 117.825 47.4993 118.319 49.3711 119.308C51.2578 120.296 52.7178 121.659 53.751 123.396C54.7992 125.132 55.4281 127.109 55.6377 129.325H48.8994C48.8245 128.007 48.5625 126.892 48.1133 125.979C47.6641 125.05 46.9827 124.354 46.0693 123.89C45.1709 123.41 43.973 123.171 42.4756 123.171C41.3525 123.171 40.3717 123.381 39.5332 123.8C38.6947 124.219 37.9909 124.855 37.4219 125.709C36.8529 126.562 36.4261 127.641 36.1416 128.943C35.8721 130.231 35.7373 131.743 35.7373 133.48V135.794C35.7373 137.486 35.8646 138.976 36.1191 140.264C36.3737 141.536 36.763 142.615 37.2871 143.498C37.8262 144.367 38.515 145.025 39.3535 145.475C40.207 145.909 41.2327 146.126 42.4307 146.126C43.8382 146.126 44.9987 145.901 45.9121 145.452C46.8255 145.003 47.5218 144.337 48.001 143.453C48.4951 142.57 48.7871 141.469 48.877 140.151ZM66.082 131.998V151H59.6133V126.697H65.7002L66.082 131.998ZM73.4043 126.54L73.292 132.537C72.9775 132.492 72.5957 132.455 72.1465 132.425C71.7122 132.38 71.3154 132.357 70.9561 132.357C70.0426 132.357 69.249 132.477 68.5752 132.717C67.9163 132.941 67.3623 133.278 66.9131 133.728C66.4788 134.177 66.1494 134.723 65.9248 135.367C65.7152 136.011 65.5954 136.745 65.5654 137.568L64.2627 137.164C64.2627 135.592 64.4199 134.147 64.7344 132.829C65.0488 131.496 65.5055 130.336 66.1045 129.348C66.7184 128.359 67.4671 127.596 68.3506 127.057C69.234 126.518 70.2448 126.248 71.3828 126.248C71.7422 126.248 72.109 126.278 72.4834 126.338C72.8577 126.383 73.1647 126.45 73.4043 126.54ZM87.1953 151.449C85.3086 151.449 83.6165 151.15 82.1191 150.551C80.6217 149.937 79.349 149.091 78.3008 148.013C77.2676 146.935 76.474 145.684 75.9199 144.262C75.3659 142.824 75.0889 141.297 75.0889 139.68V138.781C75.0889 136.939 75.3509 135.255 75.875 133.728C76.3991 132.2 77.1478 130.875 78.1211 129.752C79.1094 128.629 80.3073 127.768 81.7148 127.169C83.1224 126.555 84.7096 126.248 86.4766 126.248C88.1986 126.248 89.7259 126.533 91.0586 127.102C92.3913 127.671 93.5068 128.479 94.4053 129.527C95.3187 130.576 96.0075 131.833 96.4717 133.301C96.9359 134.753 97.168 136.37 97.168 138.152V140.848H77.8516V136.535H90.8115V136.041C90.8115 135.143 90.6468 134.341 90.3174 133.638C90.0029 132.919 89.5238 132.35 88.8799 131.931C88.236 131.511 87.4124 131.302 86.4092 131.302C85.5557 131.302 84.8219 131.489 84.208 131.863C83.5941 132.238 83.0924 132.762 82.7031 133.436C82.3288 134.109 82.0443 134.903 81.8496 135.816C81.6699 136.715 81.5801 137.703 81.5801 138.781V139.68C81.5801 140.653 81.7148 141.551 81.9844 142.375C82.2689 143.199 82.6657 143.91 83.1748 144.509C83.6989 145.108 84.3278 145.572 85.0615 145.901C85.8102 146.231 86.6562 146.396 87.5996 146.396C88.7676 146.396 89.8532 146.171 90.8564 145.722C91.8747 145.257 92.7507 144.561 93.4844 143.633L96.6289 147.047C96.1198 147.781 95.4235 148.484 94.54 149.158C93.6715 149.832 92.6234 150.386 91.3955 150.82C90.1676 151.24 88.7676 151.449 87.1953 151.449ZM113.969 145.52V134.693C113.969 133.915 113.841 133.248 113.587 132.694C113.332 132.125 112.936 131.684 112.396 131.369C111.872 131.055 111.191 130.897 110.353 130.897C109.634 130.897 109.012 131.025 108.488 131.279C107.964 131.519 107.56 131.871 107.275 132.335C106.991 132.784 106.849 133.316 106.849 133.93H100.38C100.38 132.896 100.619 131.916 101.099 130.987C101.578 130.059 102.274 129.243 103.188 128.539C104.101 127.82 105.187 127.259 106.444 126.854C107.717 126.45 109.14 126.248 110.712 126.248C112.599 126.248 114.276 126.562 115.743 127.191C117.211 127.82 118.364 128.764 119.202 130.021C120.056 131.279 120.482 132.852 120.482 134.738V145.138C120.482 146.47 120.565 147.563 120.729 148.417C120.894 149.256 121.134 149.989 121.448 150.618V151H114.912C114.598 150.341 114.358 149.518 114.193 148.529C114.044 147.526 113.969 146.523 113.969 145.52ZM114.822 136.198L114.867 139.859H111.251C110.397 139.859 109.656 139.957 109.027 140.151C108.398 140.346 107.882 140.623 107.478 140.982C107.073 141.327 106.774 141.731 106.579 142.195C106.399 142.66 106.31 143.169 106.31 143.723C106.31 144.277 106.437 144.778 106.691 145.228C106.946 145.662 107.313 146.006 107.792 146.261C108.271 146.5 108.833 146.62 109.477 146.62C110.45 146.62 111.296 146.425 112.015 146.036C112.733 145.647 113.287 145.168 113.677 144.599C114.081 144.03 114.291 143.491 114.306 142.981L116.013 145.722C115.773 146.336 115.444 146.972 115.024 147.631C114.62 148.29 114.104 148.911 113.475 149.495C112.846 150.064 112.09 150.536 111.206 150.91C110.323 151.27 109.274 151.449 108.062 151.449C106.519 151.449 105.119 151.142 103.861 150.528C102.618 149.899 101.63 149.038 100.896 147.945C100.178 146.837 99.8184 145.579 99.8184 144.172C99.8184 142.899 100.058 141.769 100.537 140.78C101.016 139.792 101.72 138.961 102.648 138.287C103.592 137.598 104.767 137.082 106.175 136.737C107.582 136.378 109.215 136.198 111.071 136.198H114.822ZM137.373 126.697V131.279H123.223V126.697H137.373ZM126.727 120.7H133.195V143.678C133.195 144.382 133.285 144.921 133.465 145.295C133.66 145.669 133.944 145.931 134.318 146.081C134.693 146.216 135.164 146.283 135.733 146.283C136.138 146.283 136.497 146.268 136.812 146.238C137.141 146.193 137.418 146.148 137.643 146.104L137.665 150.865C137.111 151.045 136.512 151.187 135.868 151.292C135.224 151.397 134.513 151.449 133.734 151.449C132.312 151.449 131.069 151.217 130.006 150.753C128.958 150.274 128.149 149.51 127.58 148.462C127.011 147.414 126.727 146.036 126.727 144.329V120.7ZM152.242 151.449C150.355 151.449 148.663 151.15 147.166 150.551C145.669 149.937 144.396 149.091 143.348 148.013C142.314 146.935 141.521 145.684 140.967 144.262C140.413 142.824 140.136 141.297 140.136 139.68V138.781C140.136 136.939 140.398 135.255 140.922 133.728C141.446 132.2 142.195 130.875 143.168 129.752C144.156 128.629 145.354 127.768 146.762 127.169C148.169 126.555 149.757 126.248 151.523 126.248C153.245 126.248 154.773 126.533 156.105 127.102C157.438 127.671 158.554 128.479 159.452 129.527C160.366 130.576 161.054 131.833 161.519 133.301C161.983 134.753 162.215 136.37 162.215 138.152V140.848H142.898V136.535H155.858V136.041C155.858 135.143 155.694 134.341 155.364 133.638C155.05 132.919 154.571 132.35 153.927 131.931C153.283 131.511 152.459 131.302 151.456 131.302C150.603 131.302 149.869 131.489 149.255 131.863C148.641 132.238 148.139 132.762 147.75 133.436C147.376 134.109 147.091 134.903 146.896 135.816C146.717 136.715 146.627 137.703 146.627 138.781V139.68C146.627 140.653 146.762 141.551 147.031 142.375C147.316 143.199 147.713 143.91 148.222 144.509C148.746 145.108 149.375 145.572 150.108 145.901C150.857 146.231 151.703 146.396 152.646 146.396C153.814 146.396 154.9 146.171 155.903 145.722C156.922 145.257 157.798 144.561 158.531 143.633L161.676 147.047C161.167 147.781 160.47 148.484 159.587 149.158C158.718 149.832 157.67 150.386 156.442 150.82C155.215 151.24 153.814 151.449 152.242 151.449ZM43.2168 177.89L34.3223 205H27.1572L39.3086 172.297H43.8682L43.2168 177.89ZM50.6064 205L41.6895 177.89L40.9707 172.297H45.5752L57.7939 205H50.6064ZM50.2021 192.826V198.104H32.9297V192.826H50.2021ZM70.4619 200.396C71.2555 200.396 71.9593 200.246 72.5732 199.946C73.1872 199.632 73.6663 199.198 74.0107 198.644C74.3701 198.075 74.5573 197.408 74.5723 196.645H80.6592C80.6442 198.352 80.1875 199.871 79.2891 201.204C78.3906 202.522 77.1852 203.562 75.6729 204.326C74.1605 205.075 72.4684 205.449 70.5967 205.449C68.71 205.449 67.0628 205.135 65.6553 204.506C64.2627 203.877 63.1022 203.008 62.1738 201.9C61.2454 200.777 60.5492 199.475 60.085 197.992C59.6208 196.495 59.3887 194.893 59.3887 193.186V192.534C59.3887 190.812 59.6208 189.21 60.085 187.728C60.5492 186.23 61.2454 184.927 62.1738 183.819C63.1022 182.696 64.2627 181.82 65.6553 181.191C67.0479 180.562 68.68 180.248 70.5518 180.248C72.5433 180.248 74.2878 180.63 75.7852 181.394C77.2975 182.157 78.4805 183.25 79.334 184.673C80.2025 186.08 80.6442 187.75 80.6592 189.682H74.5723C74.5573 188.873 74.3851 188.139 74.0557 187.48C73.7412 186.822 73.277 186.298 72.6631 185.908C72.0641 185.504 71.3229 185.302 70.4395 185.302C69.4961 185.302 68.7249 185.504 68.126 185.908C67.527 186.298 67.0628 186.837 66.7334 187.525C66.404 188.199 66.1719 188.97 66.0371 189.839C65.9173 190.692 65.8574 191.591 65.8574 192.534V193.186C65.8574 194.129 65.9173 195.035 66.0371 195.903C66.1569 196.772 66.3815 197.543 66.7109 198.217C67.0553 198.891 67.527 199.422 68.126 199.812C68.7249 200.201 69.5036 200.396 70.4619 200.396ZM94.4502 200.396C95.2438 200.396 95.9476 200.246 96.5615 199.946C97.1755 199.632 97.6546 199.198 97.999 198.644C98.3584 198.075 98.5456 197.408 98.5605 196.645H104.647C104.632 198.352 104.176 199.871 103.277 201.204C102.379 202.522 101.174 203.562 99.6611 204.326C98.1488 205.075 96.4567 205.449 94.585 205.449C92.6982 205.449 91.0511 205.135 89.6436 204.506C88.251 203.877 87.0905 203.008 86.1621 201.9C85.2337 200.777 84.5374 199.475 84.0732 197.992C83.609 196.495 83.377 194.893 83.377 193.186V192.534C83.377 190.812 83.609 189.21 84.0732 187.728C84.5374 186.23 85.2337 184.927 86.1621 183.819C87.0905 182.696 88.251 181.82 89.6436 181.191C91.0361 180.562 92.6683 180.248 94.54 180.248C96.5316 180.248 98.276 180.63 99.7734 181.394C101.286 182.157 102.469 183.25 103.322 184.673C104.191 186.08 104.632 187.75 104.647 189.682H98.5605C98.5456 188.873 98.3734 188.139 98.0439 187.48C97.7295 186.822 97.2653 186.298 96.6514 185.908C96.0524 185.504 95.3112 185.302 94.4277 185.302C93.4844 185.302 92.7132 185.504 92.1143 185.908C91.5153 186.298 91.0511 186.837 90.7217 187.525C90.3923 188.199 90.1602 188.97 90.0254 189.839C89.9056 190.692 89.8457 191.591 89.8457 192.534V193.186C89.8457 194.129 89.9056 195.035 90.0254 195.903C90.1452 196.772 90.3698 197.543 90.6992 198.217C91.0436 198.891 91.5153 199.422 92.1143 199.812C92.7132 200.201 93.4919 200.396 94.4502 200.396ZM107.365 193.096V192.624C107.365 190.842 107.62 189.202 108.129 187.705C108.638 186.193 109.379 184.882 110.353 183.774C111.326 182.666 112.524 181.805 113.946 181.191C115.369 180.562 117.001 180.248 118.843 180.248C120.685 180.248 122.324 180.562 123.762 181.191C125.199 181.805 126.405 182.666 127.378 183.774C128.366 184.882 129.115 186.193 129.624 187.705C130.133 189.202 130.388 190.842 130.388 192.624V193.096C130.388 194.863 130.133 196.502 129.624 198.015C129.115 199.512 128.366 200.822 127.378 201.945C126.405 203.053 125.207 203.914 123.784 204.528C122.362 205.142 120.729 205.449 118.888 205.449C117.046 205.449 115.406 205.142 113.969 204.528C112.546 203.914 111.341 203.053 110.353 201.945C109.379 200.822 108.638 199.512 108.129 198.015C107.62 196.502 107.365 194.863 107.365 193.096ZM113.834 192.624V193.096C113.834 194.114 113.924 195.065 114.104 195.948C114.283 196.832 114.568 197.61 114.957 198.284C115.361 198.943 115.885 199.46 116.529 199.834C117.173 200.208 117.959 200.396 118.888 200.396C119.786 200.396 120.557 200.208 121.201 199.834C121.845 199.46 122.362 198.943 122.751 198.284C123.14 197.61 123.425 196.832 123.604 195.948C123.799 195.065 123.896 194.114 123.896 193.096V192.624C123.896 191.636 123.799 190.707 123.604 189.839C123.425 188.955 123.133 188.177 122.729 187.503C122.339 186.814 121.823 186.275 121.179 185.886C120.535 185.496 119.756 185.302 118.843 185.302C117.929 185.302 117.151 185.496 116.507 185.886C115.878 186.275 115.361 186.814 114.957 187.503C114.568 188.177 114.283 188.955 114.104 189.839C113.924 190.707 113.834 191.636 113.834 192.624ZM148.738 199.183V180.697H155.207V205H149.12L148.738 199.183ZM149.457 194.196L151.366 194.151C151.366 195.769 151.179 197.273 150.805 198.666C150.43 200.044 149.869 201.242 149.12 202.26C148.371 203.263 147.428 204.049 146.29 204.618C145.152 205.172 143.812 205.449 142.27 205.449C141.087 205.449 139.993 205.285 138.99 204.955C138.002 204.611 137.148 204.079 136.43 203.36C135.726 202.627 135.172 201.691 134.768 200.553C134.378 199.4 134.184 198.015 134.184 196.397V180.697H140.652V196.442C140.652 197.161 140.735 197.768 140.899 198.262C141.079 198.756 141.326 199.16 141.641 199.475C141.955 199.789 142.322 200.014 142.741 200.148C143.175 200.283 143.655 200.351 144.179 200.351C145.511 200.351 146.56 200.081 147.323 199.542C148.102 199.003 148.648 198.269 148.963 197.341C149.292 196.397 149.457 195.349 149.457 194.196ZM166.482 185.886V205H160.014V180.697H166.078L166.482 185.886ZM165.539 191.995H163.787C163.787 190.198 164.019 188.581 164.483 187.144C164.948 185.691 165.599 184.456 166.438 183.438C167.276 182.404 168.272 181.618 169.425 181.079C170.593 180.525 171.896 180.248 173.333 180.248C174.471 180.248 175.512 180.413 176.455 180.742C177.398 181.072 178.207 181.596 178.881 182.314C179.57 183.033 180.094 183.984 180.453 185.167C180.827 186.35 181.015 187.795 181.015 189.502V205H174.501V189.479C174.501 188.401 174.351 187.563 174.052 186.964C173.752 186.365 173.311 185.946 172.727 185.706C172.158 185.451 171.454 185.324 170.615 185.324C169.747 185.324 168.991 185.496 168.347 185.841C167.718 186.185 167.194 186.664 166.774 187.278C166.37 187.877 166.063 188.581 165.854 189.39C165.644 190.198 165.539 191.067 165.539 191.995ZM197.838 180.697V185.279H183.688V180.697H197.838ZM187.191 174.7H193.66V197.678C193.66 198.382 193.75 198.921 193.93 199.295C194.124 199.669 194.409 199.931 194.783 200.081C195.158 200.216 195.629 200.283 196.198 200.283C196.603 200.283 196.962 200.268 197.276 200.238C197.606 200.193 197.883 200.148 198.107 200.104L198.13 204.865C197.576 205.045 196.977 205.187 196.333 205.292C195.689 205.397 194.978 205.449 194.199 205.449C192.777 205.449 191.534 205.217 190.471 204.753C189.423 204.274 188.614 203.51 188.045 202.462C187.476 201.414 187.191 200.036 187.191 198.329V174.7Z" fill="white"/>
<path d="M92.8289 50.007L115.14 40.7049C115.538 40.5384 115.524 40.2745 115.107 40.1153C114.693 39.9561 114.031 39.963 113.629 40.1283L90.6254 49.7187C90.2395 49.8799 90.2395 50.134 90.6254 50.2953L113.629 59.8857C113.835 59.9712 114.109 60.0144 114.384 60.0144C114.644 60.0144 114.905 59.9761 115.107 59.8987C115.524 59.7395 115.538 59.4756 115.14 59.3091L92.8289 50.007Z" fill="white"/>
</g>
<defs>
<clipPath id="clip0_20_623">
<rect width="941" height="812" rx="40" fill="white"/>
</clipPath>
</defs>
</svg>
